<svg width="129" height="22" viewBox="0 0 129 22" fill="none" xmlns="http://www.w3.org/2000/svg">
<path d="M9.44 13.34H3.88L2.96 16H0.02L5.04 2.02H8.3L13.32 16H10.36L9.44 13.34ZM8.68 11.1L6.66 5.26L4.64 11.1H8.68ZM14.4764 10.42C14.4764 9.3 14.6964 8.30667 15.1364 7.44C15.5897 6.57333 16.2031 5.90667 16.9764 5.44C17.7497 4.97333 18.6097 4.74 19.5564 4.74C20.2764 4.74 20.9631 4.9 21.6164 5.22C22.2697 5.52667 22.7897 5.94 23.1764 6.46V1.2H26.0164V16H23.1764V14.36C22.8297 14.9067 22.3431 15.3467 21.7164 15.68C21.0897 16.0133 20.3631 16.18 19.5364 16.18C18.6031 16.18 17.7497 15.94 16.9764 15.46C16.2031 14.98 15.5897 14.3067 15.1364 13.44C14.6964 12.56 14.4764 11.5533 14.4764 10.42ZM23.1964 10.46C23.1964 9.78 23.0631 9.2 22.7964 8.72C22.5297 8.22667 22.1697 7.85333 21.7164 7.6C21.2631 7.33333 20.7764 7.2 20.2564 7.2C19.7364 7.2 19.2564 7.32667 18.8164 7.58C18.3764 7.83333 18.0164 8.20667 17.7364 8.7C17.4697 9.18 17.3364 9.75333 17.3364 10.42C17.3364 11.0867 17.4697 11.6733 17.7364 12.18C18.0164 12.6733 18.3764 13.0533 18.8164 13.32C19.2697 13.5867 19.7497 13.72 20.2564 13.72C20.7764 13.72 21.2631 13.5933 21.7164 13.34C22.1697 13.0733 22.5297 12.7 22.7964 12.22C23.0631 11.7267 23.1964 11.14 23.1964 10.46ZM42.5111 4.76C43.8711 4.76 44.9644 5.18 45.7911 6.02C46.6311 6.84667 47.0511 8.00667 47.0511 9.5V16H44.2511V9.88C44.2511 9.01333 44.0311 8.35333 43.5911 7.9C43.1511 7.43333 42.5511 7.2 41.7911 7.2C41.0311 7.2 40.4244 7.43333 39.9711 7.9C39.5311 8.35333 39.3111 9.01333 39.3111 9.88V16H36.5111V9.88C36.5111 9.01333 36.2911 8.35333 35.8511 7.9C35.4111 7.43333 34.8111 7.2 34.0511 7.2C33.2778 7.2 32.6644 7.43333 32.2111 7.9C31.7711 8.35333 31.5511 9.01333 31.5511 9.88V16H28.7511V4.92H31.5511V6.26C31.9111 5.79333 32.3711 5.42667 32.9311 5.16C33.5044 4.89333 34.1311 4.76 34.8111 4.76C35.6778 4.76 36.4511 4.94667 37.1311 5.32C37.8111 5.68 38.3378 6.2 38.7111 6.88C39.0711 6.24 39.5911 5.72667 40.2711 5.34C40.9644 4.95333 41.7111 4.76 42.5111 4.76ZM51.1281 3.6C50.6348 3.6 50.2215 3.44667 49.8881 3.14C49.5681 2.82 49.4081 2.42667 49.4081 1.96C49.4081 1.49333 49.5681 1.10667 49.8881 0.799999C50.2215 0.479999 50.6348 0.319999 51.1281 0.319999C51.6215 0.319999 52.0281 0.479999 52.3481 0.799999C52.6815 1.10667 52.8481 1.49333 52.8481 1.96C52.8481 2.42667 52.6815 2.82 52.3481 3.14C52.0281 3.44667 51.6215 3.6 51.1281 3.6ZM52.5081 4.92V16H49.7081V4.92H52.5081ZM61.4145 4.76C62.7345 4.76 63.8012 5.18 64.6145 6.02C65.4279 6.84667 65.8345 8.00667 65.8345 9.5V16H63.0345V9.88C63.0345 9 62.8145 8.32667 62.3745 7.86C61.9345 7.38 61.3345 7.14 60.5745 7.14C59.8012 7.14 59.1879 7.38 58.7345 7.86C58.2945 8.32667 58.0745 9 58.0745 9.88V16H55.2745V4.92H58.0745V6.3C58.4479 5.82 58.9212 5.44667 59.4945 5.18C60.0812 4.9 60.7212 4.76 61.4145 4.76ZM76.0628 6.52C76.4228 6.01333 76.9161 5.59333 77.5428 5.26C78.1828 4.91333 78.9095 4.74 79.7228 4.74C80.6695 4.74 81.5228 4.97333 82.2828 5.44C83.0561 5.90667 83.6628 6.57333 84.1028 7.44C84.5561 8.29333 84.7828 9.28667 84.7828 10.42C84.7828 11.5533 84.5561 12.56 84.1028 13.44C83.6628 14.3067 83.0561 14.98 82.2828 15.46C81.5228 15.94 80.6695 16.18 79.7228 16.18C78.9095 16.18 78.1895 16.0133 77.5628 15.68C76.9495 15.3467 76.4495 14.9267 76.0628 14.42V21.28H73.2628V4.92H76.0628V6.52ZM81.9228 10.42C81.9228 9.75333 81.7828 9.18 81.5028 8.7C81.2361 8.20667 80.8761 7.83333 80.4228 7.58C79.9828 7.32667 79.5028 7.2 78.9828 7.2C78.4761 7.2 77.9961 7.33333 77.5428 7.6C77.1028 7.85333 76.7428 8.22667 76.4628 8.72C76.1961 9.21333 76.0628 9.79333 76.0628 10.46C76.0628 11.1267 76.1961 11.7067 76.4628 12.2C76.7428 12.6933 77.1028 13.0733 77.5428 13.34C77.9961 13.5933 78.4761 13.72 78.9828 13.72C79.5028 13.72 79.9828 13.5867 80.4228 13.32C80.8761 13.0533 81.2361 12.6733 81.5028 12.18C81.7828 11.6867 81.9228 11.1 81.9228 10.42ZM86.0975 10.42C86.0975 9.3 86.3175 8.30667 86.7575 7.44C87.2108 6.57333 87.8175 5.90667 88.5775 5.44C89.3508 4.97333 90.2108 4.74 91.1575 4.74C91.9842 4.74 92.7042 4.90667 93.3175 5.24C93.9442 5.57333 94.4442 5.99333 94.8175 6.5V4.92H97.6375V16H94.8175V14.38C94.4575 14.9 93.9575 15.3333 93.3175 15.68C92.6908 16.0133 91.9642 16.18 91.1375 16.18C90.2042 16.18 89.3508 15.94 88.5775 15.46C87.8175 14.98 87.2108 14.3067 86.7575 13.44C86.3175 12.56 86.0975 11.5533 86.0975 10.42ZM94.8175 10.46C94.8175 9.78 94.6842 9.2 94.4175 8.72C94.1508 8.22667 93.7908 7.85333 93.3375 7.6C92.8842 7.33333 92.3975 7.2 91.8775 7.2C91.3575 7.2 90.8775 7.32667 90.4375 7.58C89.9975 7.83333 89.6375 8.20667 89.3575 8.7C89.0908 9.18 88.9575 9.75333 88.9575 10.42C88.9575 11.0867 89.0908 11.6733 89.3575 12.18C89.6375 12.6733 89.9975 13.0533 90.4375 13.32C90.8908 13.5867 91.3708 13.72 91.8775 13.72C92.3975 13.72 92.8842 13.5933 93.3375 13.34C93.7908 13.0733 94.1508 12.7 94.4175 12.22C94.6842 11.7267 94.8175 11.14 94.8175 10.46ZM106.512 4.76C107.832 4.76 108.899 5.18 109.712 6.02C110.526 6.84667 110.932 8.00667 110.932 9.5V16H108.132V9.88C108.132 9 107.912 8.32667 107.472 7.86C107.032 7.38 106.432 7.14 105.672 7.14C104.899 7.14 104.286 7.38 103.832 7.86C103.392 8.32667 103.172 9 103.172 9.88V16H100.372V4.92H103.172V6.3C103.546 5.82 104.019 5.44667 104.592 5.18C105.179 4.9 105.819 4.76 106.512 4.76ZM123.895 10.22C123.895 10.62 123.868 10.98 123.815 11.3H115.715C115.782 12.1 116.062 12.7267 116.555 13.18C117.048 13.6333 117.655 13.86 118.375 13.86C119.415 13.86 120.155 13.4133 120.595 12.52H123.615C123.295 13.5867 122.682 14.4667 121.775 15.16C120.868 15.84 119.755 16.18 118.435 16.18C117.368 16.18 116.408 15.9467 115.555 15.48C114.715 15 114.055 14.3267 113.575 13.46C113.108 12.5933 112.875 11.5933 112.875 10.46C112.875 9.31333 113.108 8.30667 113.575 7.44C114.042 6.57333 114.695 5.90667 115.535 5.44C116.375 4.97333 117.342 4.74 118.435 4.74C119.488 4.74 120.428 4.96667 121.255 5.42C122.095 5.87333 122.742 6.52 123.195 7.36C123.662 8.18667 123.895 9.14 123.895 10.22ZM120.995 9.42C120.982 8.7 120.722 8.12667 120.215 7.7C119.708 7.26 119.088 7.04 118.355 7.04C117.662 7.04 117.075 7.25333 116.595 7.68C116.128 8.09333 115.842 8.67333 115.735 9.42H120.995ZM128.739 1.2V16H125.939V1.2H128.739Z" fill="#F2B68C"/>
</svg>
